<svg width="260" height="141" viewBox="0 0 260 141" fill="none" xmlns="http://www.w3.org/2000/svg">
    <circle cx="257.5" cy="70.5" r="2.5" fill="black" fill-opacity="0.24"/>
    <circle cx="240.5" cy="70.5" r="2.5" fill="black" fill-opacity="0.24"/>
    <circle cx="223.5" cy="70.5" r="2.5" fill="black" fill-opacity="0.24"/>
    <circle cx="206.5" cy="70.5" r="2.5" fill="black" fill-opacity="0.24"/>
    <circle cx="189.5" cy="70.5" r="2.5" fill="black" fill-opacity="0.24"/>
    <circle cx="172.5" cy="70.5" r="2.5" fill="black" fill-opacity="0.24"/>
    <circle cx="155.5" cy="70.5" r="2.5" fill="black" fill-opacity="0.24"/>
    <circle cx="138.5" cy="70.5" r="2.5" fill="black" fill-opacity="0.24"/>
    <circle cx="121.5" cy="70.5" r="2.5" fill="black" fill-opacity="0.24"/>
    <circle cx="104.5" cy="70.5" r="2.5" fill="black" fill-opacity="0.24"/>
    <circle cx="87.5" cy="70.5" r="2.5" fill="black" fill-opacity="0.24"/>
    <circle cx="70.5" cy="70.5" r="2.5" fill="black" fill-opacity="0.24"/>
    <circle cx="53.5" cy="70.5" r="2.5" fill="black" fill-opacity="0.24"/>
    <circle cx="36.5" cy="70.5" r="2.5" fill="black" fill-opacity="0.24"/>
    <circle cx="19.5" cy="70.5" r="2.5" fill="black" fill-opacity="0.24"/>
    <circle cx="2.5" cy="70.5" r="2.5" fill="black" fill-opacity="0.24"/>
    <circle cx="257.5" cy="53.5" r="2.5" fill="black" fill-opacity="0.24"/>
    <circle cx="240.5" cy="53.5" r="2.5" fill="black" fill-opacity="0.24"/>
    <circle cx="223.5" cy="53.5" r="2.5" fill="black" fill-opacity="0.24"/>
    <circle cx="206.5" cy="53.5" r="2.5" fill="black" fill-opacity="0.24"/>
    <circle cx="189.5" cy="53.5" r="2.5" fill="black" fill-opacity="0.24"/>
    <circle cx="172.5" cy="53.5" r="2.5" fill="black" fill-opacity="0.24"/>
    <circle cx="155.5" cy="53.5" r="2.5" fill="black" fill-opacity="0.24"/>
    <circle cx="138.5" cy="53.5" r="2.5" fill="black" fill-opacity="0.24"/>
    <circle cx="121.5" cy="53.5" r="2.5" fill="black" fill-opacity="0.24"/>
    <circle cx="104.5" cy="53.5" r="2.5" fill="black" fill-opacity="0.24"/>
    <circle cx="87.5" cy="53.5" r="2.5" fill="black" fill-opacity="0.24"/>
    <circle cx="70.5" cy="53.5" r="2.5" fill="black" fill-opacity="0.24"/>
    <circle cx="53.5" cy="53.5" r="2.5" fill="black" fill-opacity="0.24"/>
    <circle cx="36.5" cy="53.5" r="2.5" fill="black" fill-opacity="0.24"/>
    <circle cx="19.5" cy="53.5" r="2.5" fill="black" fill-opacity="0.24"/>
    <circle cx="2.5" cy="53.5" r="2.5" fill="black" fill-opacity="0.24"/>
    <circle cx="257.5" cy="104.5" r="2.5" fill="black" fill-opacity="0.24"/>
    <circle cx="240.5" cy="104.5" r="2.5" fill="black" fill-opacity="0.24"/>
    <circle cx="223.5" cy="104.5" r="2.5" fill="black" fill-opacity="0.24"/>
    <circle cx="206.5" cy="104.5" r="2.5" fill="black" fill-opacity="0.24"/>
    <circle cx="189.5" cy="104.5" r="2.5" fill="black" fill-opacity="0.24"/>
    <circle cx="172.5" cy="104.5" r="2.5" fill="black" fill-opacity="0.24"/>
    <circle cx="155.5" cy="104.5" r="2.5" fill="black" fill-opacity="0.24"/>
    <circle cx="138.5" cy="104.5" r="2.5" fill="black" fill-opacity="0.24"/>
    <circle cx="121.5" cy="104.5" r="2.5" fill="black" fill-opacity="0.24"/>
    <circle cx="104.5" cy="104.5" r="2.5" fill="black" fill-opacity="0.24"/>
    <circle cx="87.5" cy="104.5" r="2.5" fill="black" fill-opacity="0.24"/>
    <circle cx="70.5" cy="104.5" r="2.5" fill="black" fill-opacity="0.24"/>
    <circle cx="53.5" cy="104.5" r="2.5" fill="black" fill-opacity="0.24"/>
    <circle cx="36.5" cy="104.5" r="2.5" fill="black" fill-opacity="0.24"/>
    <circle cx="19.5" cy="104.5" r="2.5" fill="black" fill-opacity="0.24"/>
    <circle cx="2.5" cy="104.5" r="2.5" fill="black" fill-opacity="0.24"/>
    <circle cx="257.5" cy="87.5" r="2.5" fill="black" fill-opacity="0.24"/>
    <circle cx="240.5" cy="87.5" r="2.5" fill="black" fill-opacity="0.24"/>
    <circle cx="223.5" cy="87.5" r="2.5" fill="black" fill-opacity="0.24"/>
    <circle cx="206.5" cy="87.5" r="2.5" fill="black" fill-opacity="0.24"/>
    <circle cx="189.5" cy="87.5" r="2.5" fill="black" fill-opacity="0.24"/>
    <circle cx="172.5" cy="87.5" r="2.5" fill="black" fill-opacity="0.24"/>
    <circle cx="155.5" cy="87.5" r="2.5" fill="black" fill-opacity="0.24"/>
    <circle cx="138.5" cy="87.5" r="2.5" fill="black" fill-opacity="0.24"/>
    <circle cx="121.5" cy="87.5" r="2.5" fill="black" fill-opacity="0.24"/>
    <circle cx="104.5" cy="87.5" r="2.5" fill="black" fill-opacity="0.24"/>
    <circle cx="87.5" cy="87.5" r="2.5" fill="black" fill-opacity="0.24"/>
    <circle cx="70.5" cy="87.5" r="2.5" fill="black" fill-opacity="0.24"/>
    <circle cx="53.5" cy="87.5" r="2.5" fill="black" fill-opacity="0.24"/>
    <circle cx="36.5" cy="87.5" r="2.5" fill="black" fill-opacity="0.24"/>
    <circle cx="19.5" cy="87.5" r="2.5" fill="black" fill-opacity="0.24"/>
    <circle cx="2.5" cy="87.5" r="2.5" fill="black" fill-opacity="0.24"/>
    <circle cx="257.5" cy="121.5" r="2.5" fill="black" fill-opacity="0.24"/>
    <circle cx="240.5" cy="121.5" r="2.5" fill="black" fill-opacity="0.24"/>
    <circle cx="223.5" cy="121.5" r="2.5" fill="black" fill-opacity="0.24"/>
    <circle cx="206.5" cy="121.5" r="2.5" fill="black" fill-opacity="0.24"/>
    <circle cx="189.5" cy="121.5" r="2.5" fill="black" fill-opacity="0.24"/>
    <circle cx="172.5" cy="121.5" r="2.5" fill="black" fill-opacity="0.24"/>
    <circle cx="155.5" cy="121.5" r="2.5" fill="black" fill-opacity="0.24"/>
    <circle cx="138.5" cy="121.5" r="2.5" fill="black" fill-opacity="0.24"/>
    <circle cx="121.5" cy="121.5" r="2.5" fill="black" fill-opacity="0.24"/>
    <circle cx="104.5" cy="121.5" r="2.5" fill="black" fill-opacity="0.24"/>
    <circle cx="87.5" cy="121.5" r="2.5" fill="black" fill-opacity="0.24"/>
    <circle cx="70.5" cy="121.5" r="2.5" fill="black" fill-opacity="0.24"/>
    <circle cx="53.5" cy="121.5" r="2.5" fill="black" fill-opacity="0.24"/>
    <circle cx="36.5" cy="121.5" r="2.5" fill="black" fill-opacity="0.24"/>
    <circle cx="19.5" cy="121.5" r="2.5" fill="black" fill-opacity="0.24"/>
    <circle cx="2.5" cy="121.5" r="2.5" fill="black" fill-opacity="0.24"/>
    <circle cx="257.5" cy="138.5" r="2.5" fill="black" fill-opacity="0.24"/>
    <circle cx="240.5" cy="138.5" r="2.5" fill="black" fill-opacity="0.24"/>
    <circle cx="223.5" cy="138.5" r="2.5" fill="black" fill-opacity="0.24"/>
    <circle cx="206.5" cy="138.5" r="2.5" fill="black" fill-opacity="0.24"/>
    <circle cx="189.5" cy="138.5" r="2.5" fill="black" fill-opacity="0.24"/>
    <circle cx="172.5" cy="138.5" r="2.5" fill="black" fill-opacity="0.24"/>
    <circle cx="155.5" cy="138.5" r="2.5" fill="black" fill-opacity="0.24"/>
    <circle cx="138.5" cy="138.5" r="2.5" fill="black" fill-opacity="0.24"/>
    <circle cx="121.5" cy="138.5" r="2.5" fill="black" fill-opacity="0.24"/>
    <circle cx="104.5" cy="138.5" r="2.5" fill="black" fill-opacity="0.24"/>
    <circle cx="87.5" cy="138.5" r="2.5" fill="black" fill-opacity="0.24"/>
    <circle cx="70.5" cy="138.5" r="2.5" fill="black" fill-opacity="0.24"/>
    <circle cx="53.5" cy="138.5" r="2.5" fill="black" fill-opacity="0.24"/>
    <circle cx="36.5" cy="138.5" r="2.5" fill="black" fill-opacity="0.24"/>
    <circle cx="19.5" cy="138.5" r="2.5" fill="black" fill-opacity="0.24"/>
    <circle cx="2.5" cy="138.5" r="2.5" fill="black" fill-opacity="0.24"/>
    <circle cx="257.5" cy="2.5" r="2.5" fill="black" fill-opacity="0.24"/>
    <circle cx="240.5" cy="2.5" r="2.5" fill="black" fill-opacity="0.24"/>
    <circle cx="223.5" cy="2.5" r="2.5" fill="black" fill-opacity="0.24"/>
    <circle cx="206.5" cy="2.5" r="2.5" fill="black" fill-opacity="0.24"/>
    <circle cx="189.5" cy="2.5" r="2.5" fill="black" fill-opacity="0.24"/>
    <circle cx="172.5" cy="2.5" r="2.5" fill="black" fill-opacity="0.24"/>
    <circle cx="155.5" cy="2.5" r="2.5" fill="black" fill-opacity="0.24"/>
    <circle cx="138.5" cy="2.5" r="2.5" fill="black" fill-opacity="0.24"/>
    <circle cx="121.5" cy="2.5" r="2.5" fill="black" fill-opacity="0.24"/>
    <circle cx="104.5" cy="2.5" r="2.5" fill="black" fill-opacity="0.24"/>
    <circle cx="87.5" cy="2.5" r="2.5" fill="black" fill-opacity="0.24"/>
    <circle cx="70.5" cy="2.5" r="2.5" fill="black" fill-opacity="0.24"/>
    <circle cx="53.5" cy="2.5" r="2.5" fill="black" fill-opacity="0.24"/>
    <circle cx="36.5" cy="2.5" r="2.5" fill="black" fill-opacity="0.24"/>
    <circle cx="19.5" cy="2.5" r="2.5" fill="black" fill-opacity="0.24"/>
    <circle cx="2.5" cy="2.5" r="2.5" fill="black" fill-opacity="0.24"/>
    <circle cx="257.5" cy="36.5" r="2.5" fill="black" fill-opacity="0.24"/>
    <circle cx="240.5" cy="36.5" r="2.5" fill="black" fill-opacity="0.24"/>
    <circle cx="223.5" cy="36.5" r="2.5" fill="black" fill-opacity="0.24"/>
    <circle cx="206.5" cy="36.5" r="2.5" fill="black" fill-opacity="0.24"/>
    <circle cx="189.5" cy="36.5" r="2.5" fill="black" fill-opacity="0.24"/>
    <circle cx="172.5" cy="36.5" r="2.5" fill="black" fill-opacity="0.24"/>
    <circle cx="155.5" cy="36.5" r="2.5" fill="black" fill-opacity="0.24"/>
    <circle cx="138.5" cy="36.5" r="2.5" fill="black" fill-opacity="0.24"/>
    <circle cx="121.5" cy="36.5" r="2.5" fill="black" fill-opacity="0.24"/>
    <circle cx="104.5" cy="36.5" r="2.5" fill="black" fill-opacity="0.24"/>
    <circle cx="87.5" cy="36.5" r="2.5" fill="black" fill-opacity="0.24"/>
    <circle cx="70.5" cy="36.5" r="2.5" fill="black" fill-opacity="0.24"/>
    <circle cx="53.5" cy="36.5" r="2.5" fill="black" fill-opacity="0.24"/>
    <circle cx="36.5" cy="36.5" r="2.5" fill="black" fill-opacity="0.24"/>
    <circle cx="19.5" cy="36.5" r="2.5" fill="black" fill-opacity="0.24"/>
    <circle cx="2.5" cy="36.5" r="2.5" fill="black" fill-opacity="0.24"/>
    <circle cx="257.5" cy="19.5" r="2.5" fill="black" fill-opacity="0.24"/>
    <circle cx="240.5" cy="19.5" r="2.5" fill="black" fill-opacity="0.24"/>
    <circle cx="223.5" cy="19.5" r="2.5" fill="black" fill-opacity="0.24"/>
    <circle cx="206.5" cy="19.5" r="2.5" fill="black" fill-opacity="0.24"/>
    <circle cx="189.5" cy="19.5" r="2.5" fill="black" fill-opacity="0.24"/>
    <circle cx="172.5" cy="19.5" r="2.5" fill="black" fill-opacity="0.24"/>
    <circle cx="155.5" cy="19.5" r="2.5" fill="black" fill-opacity="0.24"/>
    <circle cx="138.5" cy="19.5" r="2.5" fill="black" fill-opacity="0.24"/>
    <circle cx="121.5" cy="19.5" r="2.5" fill="black" fill-opacity="0.24"/>
    <circle cx="104.5" cy="19.5" r="2.5" fill="black" fill-opacity="0.24"/>
    <circle cx="87.5" cy="19.5" r="2.5" fill="black" fill-opacity="0.24"/>
    <circle cx="70.5" cy="19.5" r="2.5" fill="black" fill-opacity="0.24"/>
    <circle cx="53.5" cy="19.5" r="2.5" fill="black" fill-opacity="0.24"/>
    <circle cx="36.5" cy="19.5" r="2.5" fill="black" fill-opacity="0.24"/>
    <circle cx="19.5" cy="19.5" r="2.5" fill="black" fill-opacity="0.24"/>
    <circle cx="2.5" cy="19.5" r="2.5" fill="black" fill-opacity="0.24"/>
    </svg>
    