<svg version="1.1" id="Layer_1" xmlns="http://www.w3.org/2000/svg" xmlns:xlink="http://www.w3.org/1999/xlink" x="0px" y="0px" viewBox="0 0 512 512" style="enable-background:new 0 0 512 512;" xml:space="preserve">
    <circle style="fill:#7A59E7;" cx="256" cy="256" r="256"/>
    <path style="fill:#5628EE;" d="M256,0v512c141.385,0,256-114.615,256-256S397.385,0,256,0z"/>
    <path style="fill:#F2F2F4;" d="M256,393.143c-75.621,0-137.143-61.522-137.143-137.143S180.379,118.857,256,118.857  S393.143,180.379,393.143,256S331.621,393.143,256,393.143z M256,173.714c-45.372,0-82.286,36.913-82.286,82.286  s36.913,82.286,82.286,82.286s82.286-36.913,82.286-82.286S301.374,173.714,256,173.714z"/>
    <path style="fill:#DFDFE1;" d="M256,118.857v54.857c45.374,0,82.286,36.913,82.286,82.286S301.374,338.286,256,338.286v54.857  c75.621,0,137.143-61.522,137.143-137.143S331.621,118.857,256,118.857z"/>
    <g>
    </g>
    <g>
    </g>
    <g>
    </g>
    <g>
    </g>
    <g>
    </g>
    <g>
    </g>
    <g>
    </g>
    <g>
    </g>
    <g>
    </g>
    <g>
    </g>
    <g>
    </g>
    <g>
    </g>
    <g>
    </g>
    <g>
    </g>
    <g>
    </g>
    </svg>